<mxfile host="app.diagrams.net" agent="Mozilla/5.0 (Macintosh; Intel Mac OS X 10_15_7) AppleWebKit/537.36 (KHTML, like Gecko) Chrome/116.0.0.0 Safari/537.36" version="25.0.3">
  <diagram name="Page-1" id="bH7KPI9Miu9L2uANVqlw">
    <mxGraphModel dx="1912" dy="1892" grid="1" gridSize="10" guides="1" tooltips="1" connect="1" arrows="1" fold="1" page="1" pageScale="1" pageWidth="1169" pageHeight="827" math="1" shadow="0">
      <root>
        <mxCell id="0" />
        <mxCell id="1" parent="0" />
        <mxCell id="ILDygPCv1J6Gr_hLBTft-1" value="\(\mathbb{DY}\)&lt;font color=&quot;#ff66b3&quot;&gt;\(\Sigma\)&lt;/font&gt;\(\mathbb{ON}\)" style="text;html=1;align=center;verticalAlign=middle;whiteSpace=wrap;rounded=0;fontSize=60;fontFamily=Verdana;" parent="1" vertex="1">
          <mxGeometry x="330" y="-443" width="320" height="30" as="geometry" />
        </mxCell>
      </root>
    </mxGraphModel>
  </diagram>
</mxfile>
